<?xml version="1.0" standalone="no"?>
<!DOCTYPE svg PUBLIC "-//W3C//DTD SVG 20010904//EN"
 "http://www.w3.org/TR/2001/REC-SVG-20010904/DTD/svg10.dtd">
<svg version="1.0" xmlns="http://www.w3.org/2000/svg"
 width="374.000000pt" height="137.000000pt" viewBox="0 0 374.000000 137.000000"
 preserveAspectRatio="xMidYMid meet">

<g transform="translate(0.000000,137.000000) scale(0.100000,-0.100000)"
fill="none" stroke="yellow" strike-width="50px">
<path d="M140 1275 l0 -94 79 -3 79 -3 -74 -225 c-40 -124 -74 -226 -74 -228
0 -1 53 -1 117 0 l116 3 20 58 19 58 96 -3 97 -3 20 -57 20 -58 222 0 222 0 3
120 3 120 95 -120 95 -120 108 0 107 0 0 230 c0 147 4 230 10 230 6 0 10 -84
10 -231 l0 -231 248 4 c235 3 250 4 300 27 111 50 166 153 166 311 0 105 -26
173 -89 228 -84 74 -96 75 -497 80 l-357 4 -3 -122 -3 -122 -95 120 -95 121
-107 1 -108 0 -1 -302 -1 -303 -101 303 -102 302 -272 0 -273 0 0 -95z m423
-303 c-23 -2 -63 -2 -87 0 l-44 3 46 125 46 124 41 -124 42 -125 -44 -3z
m1367 220 c47 -23 70 -72 70 -147 0 -118 -51 -165 -177 -165 l-73 0 0 165 0
165 73 0 c48 0 83 -6 107 -18z"/>
<path d="M2280 1046 l0 -326 120 0 120 0 0 102 0 103 103 -103 102 -102 428 0
427 0 0 95 0 95 -195 0 -195 0 0 40 0 40 110 0 110 0 0 55 0 55 -110 0 -110 0
0 40 0 40 170 0 170 0 0 95 0 95 -345 0 -345 0 0 -24 0 -23 -42 21 c-40 19
-62 21 -280 24 l-238 3 0 -325z m422 147 c20 -18 24 -73 6 -91 -8 -8 -45 -12
-100 -12 l-88 0 0 60 0 60 82 0 c62 0 86 -4 100 -17z m268 -148 l0 -135 -93 0
c-93 0 -93 0 -116 31 -13 17 -21 32 -19 33 1 1 19 9 38 16 82 31 130 88 130
155 0 32 2 35 30 35 l30 0 0 -135z"/>
<path d="M1290 425 l0 -225 -200 0 -200 0 0 35 0 35 110 0 110 0 0 55 0 55
-110 0 -110 0 0 35 0 35 170 0 170 0 0 95 0 95 -340 0 c-330 0 -340 -1 -340
-20 0 -19 0 -19 -42 0 -39 18 -67 20 -275 20 l-233 0 0 -315 0 -315 115 0 115
0 0 102 0 103 103 -103 102 -102 527 0 527 0 3 117 3 117 93 -117 94 -117 203
0 204 0 17 55 18 55 97 0 98 0 17 -55 18 -55 121 0 122 0 -106 314 -106 314
-320 7 c-176 4 -333 5 -350 4 l-30 -4 -5 -113 -5 -114 -93 116 -92 116 -100 0
-100 0 0 -225z m976 -37 c20 -62 39 -119 42 -125 3 -10 -17 -13 -82 -13 -47 0
-86 3 -86 8 0 7 84 242 87 242 1 0 18 -51 39 -112z m-1852 86 c19 -18 21 -75
4 -92 -8 -8 -45 -12 -100 -12 l-88 0 0 60 0 60 84 0 c64 0 88 -4 100 -16z
m266 -149 l0 -125 -93 0 c-77 0 -97 3 -109 18 -30 34 -29 40 9 52 79 26 133
86 133 150 0 27 3 30 30 30 l30 0 0 -125z m1317 113 c-2 -7 -25 -79 -51 -161
-26 -81 -49 -147 -51 -147 -3 0 -5 72 -5 160 l0 160 56 0 c41 0 55 -3 51 -12z"/>
<path d="M3063 643 l-73 -4 0 -212 c0 -237 -2 -246 -66 -267 -43 -15 -99 -5
-125 21 -18 18 -19 34 -19 239 l0 220 -105 0 -105 0 0 -216 c0 -143 4 -231 12
-258 30 -100 151 -166 306 -166 110 0 176 24 237 85 64 63 75 100 75 249 l0
116 70 0 70 0 0 -220 0 -220 105 0 105 0 0 220 0 220 95 0 95 0 0 95 0 95
-252 0 c-139 0 -275 2 -303 4 -27 2 -83 1 -122 -1z"/>
</g>
</svg>
